<svg xmlns="http://www.w3.org/2000/svg" viewBox="0 0 512 512" width="512" height="512">
  <rect width="512" height="512" fill="#000000" rx="64"/>
  <path fill="#3b82f6" d="M256 96c-88.37 0-160 71.63-160 160s71.63 160 160 160 160-71.63 160-160-71.63-160-160-160zm0 288c-70.69 0-128-57.31-128-128s57.31-128 128-128 128 57.31 128 128-57.31 128-128 128z"/>
  <path fill="#3b82f6" d="M256 160c-52.94 0-96 43.06-96 96s43.06 96 96 96 96-43.06 96-96-43.06-96-96-96zm0 160c-35.29 0-64-28.71-64-64s28.71-64 64-64 64 28.71 64 64-28.71 64-64 64z"/>
  <circle fill="#3b82f6" cx="256" cy="256" r="32"/>
  <path fill="#22c55e" d="M352 160l-32 96h64z"/>
</svg>
