<svg xmlns="http://www.w3.org/2000/svg" viewBox="0 0 192 192" width="192" height="192">
  <rect width="192" height="192" fill="#000000" rx="24"/>
  <path fill="#3b82f6" d="M96 36c-33.14 0-60 26.86-60 60s26.86 60 60 60 60-26.86 60-60-26.86-60-60-60zm0 108c-26.47 0-48-21.53-48-48s21.53-48 48-48 48 21.53 48 48-21.53 48-48 48z"/>
  <path fill="#3b82f6" d="M96 60c-19.88 0-36 16.12-36 36s16.12 36 36 36 36-16.12 36-36-16.12-36-36-36zm0 60c-13.23 0-24-10.77-24-24s10.77-24 24-24 24 10.77 24 24-10.77 24-24 24z"/>
  <circle fill="#3b82f6" cx="96" cy="96" r="12"/>
  <path fill="#22c55e" d="M132 60l-12 36h24z"/>
</svg>
